<?xml version="1.0" encoding="UTF-8" standalone="no"?>
<!DOCTYPE svg PUBLIC "-//W3C//DTD SVG 1.1//EN"
 "http://www.w3.org/Graphics/SVG/1.1/DTD/svg11.dtd">
<!-- Generated by graphviz version 2.47.3 (20210619.1520)
 -->
<!-- Title: dependencies Pages: 1 -->
<svg width="2117pt" height="247pt"
 viewBox="0.00 0.00 2117.00 246.80" xmlns="http://www.w3.org/2000/svg" xmlns:xlink="http://www.w3.org/1999/xlink">
<g id="graph0" class="graph" transform="scale(1 1) rotate(0) translate(4 242.8)">
<title>dependencies</title>
<polygon fill="white" stroke="transparent" points="-4,4 -4,-242.8 2113,-242.8 2113,4 -4,4"/>
<text text-anchor="middle" x="1054.5" y="-8.2" font-family="sans-serif" font-size="14.00">dependencies</text>
<g id="clust1" class="cluster">
<title>cluster_AppModule</title>
<polygon fill="none" stroke="black" stroke-dasharray="1,5" points="8,-32.8 8,-230.8 2101,-230.8 2101,-32.8 8,-32.8"/>
</g>
<g id="clust16" class="cluster">
<title>cluster_AppModule_imports</title>
<polygon fill="none" stroke="black" points="1949,-40.8 1949,-92.8 2093,-92.8 2093,-40.8 1949,-40.8"/>
</g>
<g id="clust18" class="cluster">
<title>cluster_AppModule_bootstrap</title>
<polygon fill="none" stroke="black" points="1020,-170.8 1020,-222.8 1144,-222.8 1144,-170.8 1020,-170.8"/>
</g>
<g id="clust2" class="cluster">
<title>cluster_AppModule_declarations</title>
<polygon fill="none" stroke="black" points="16,-40.8 16,-92.8 1941,-92.8 1941,-40.8 16,-40.8"/>
</g>
<!-- AlertasComponent -->
<g id="node1" class="node">
<title>AlertasComponent</title>
<polygon fill="#ffffb3" stroke="black" points="1932.75,-84.8 1811.25,-84.8 1811.25,-48.8 1932.75,-48.8 1932.75,-84.8"/>
<text text-anchor="middle" x="1872" y="-62.6" font-family="Times,serif" font-size="14.00">AlertasComponent</text>
</g>
<!-- AppModule -->
<g id="node14" class="node">
<title>AppModule</title>
<polygon fill="#8dd3c7" stroke="black" points="1123.66,-149.8 1120.66,-153.8 1099.66,-153.8 1096.66,-149.8 1040.34,-149.8 1040.34,-113.8 1123.66,-113.8 1123.66,-149.8"/>
<text text-anchor="middle" x="1082" y="-127.6" font-family="Times,serif" font-size="14.00">AppModule</text>
</g>
<!-- AlertasComponent&#45;&gt;AppModule -->
<g id="edge1" class="edge">
<title>AlertasComponent&#45;&gt;AppModule</title>
<path fill="none" stroke="black" d="M1872,-84.84C1872,-106.46 1872,-139.8 1872,-139.8 1872,-139.8 1133.92,-139.8 1133.92,-139.8"/>
<polygon fill="black" stroke="black" points="1133.92,-136.3 1123.92,-139.8 1133.92,-143.3 1133.92,-136.3"/>
</g>
<!-- AppComponent -->
<g id="node2" class="node">
<title>AppComponent</title>
<polygon fill="#ffffb3" stroke="black" points="1792.94,-84.8 1687.06,-84.8 1687.06,-48.8 1792.94,-48.8 1792.94,-84.8"/>
<text text-anchor="middle" x="1740" y="-62.6" font-family="Times,serif" font-size="14.00">AppComponent</text>
</g>
<!-- AppComponent&#45;&gt;AppModule -->
<g id="edge2" class="edge">
<title>AppComponent&#45;&gt;AppModule</title>
<path fill="none" stroke="black" d="M1740,-85.02C1740,-105.17 1740,-134.8 1740,-134.8 1740,-134.8 1133.66,-134.8 1133.66,-134.8"/>
<polygon fill="black" stroke="black" points="1133.66,-131.3 1123.66,-134.8 1133.66,-138.3 1133.66,-131.3"/>
</g>
<!-- CadastrarComponent -->
<g id="node3" class="node">
<title>CadastrarComponent</title>
<polygon fill="#ffffb3" stroke="black" points="1669.47,-84.8 1534.53,-84.8 1534.53,-48.8 1669.47,-48.8 1669.47,-84.8"/>
<text text-anchor="middle" x="1602" y="-62.6" font-family="Times,serif" font-size="14.00">CadastrarComponent</text>
</g>
<!-- CadastrarComponent&#45;&gt;AppModule -->
<g id="edge3" class="edge">
<title>CadastrarComponent&#45;&gt;AppModule</title>
<path fill="none" stroke="black" d="M1602,-85.02C1602,-103.63 1602,-129.8 1602,-129.8 1602,-129.8 1133.67,-129.8 1133.67,-129.8"/>
<polygon fill="black" stroke="black" points="1133.67,-126.3 1123.67,-129.8 1133.67,-133.3 1133.67,-126.3"/>
</g>
<!-- EditPostagemComponent -->
<g id="node4" class="node">
<title>EditPostagemComponent</title>
<polygon fill="#ffffb3" stroke="black" points="1516.6,-84.8 1357.4,-84.8 1357.4,-48.8 1516.6,-48.8 1516.6,-84.8"/>
<text text-anchor="middle" x="1437" y="-62.6" font-family="Times,serif" font-size="14.00">EditPostagemComponent</text>
</g>
<!-- EditPostagemComponent&#45;&gt;AppModule -->
<g id="edge4" class="edge">
<title>EditPostagemComponent&#45;&gt;AppModule</title>
<path fill="none" stroke="black" d="M1437,-84.83C1437,-101.86 1437,-124.8 1437,-124.8 1437,-124.8 1133.77,-124.8 1133.77,-124.8"/>
<polygon fill="black" stroke="black" points="1133.77,-121.3 1123.77,-124.8 1133.77,-128.3 1133.77,-121.3"/>
</g>
<!-- EntrarComponent -->
<g id="node5" class="node">
<title>EntrarComponent</title>
<polygon fill="#ffffb3" stroke="black" points="1339.31,-84.8 1222.69,-84.8 1222.69,-48.8 1339.31,-48.8 1339.31,-84.8"/>
<text text-anchor="middle" x="1281" y="-62.6" font-family="Times,serif" font-size="14.00">EntrarComponent</text>
</g>
<!-- EntrarComponent&#45;&gt;AppModule -->
<g id="edge5" class="edge">
<title>EntrarComponent&#45;&gt;AppModule</title>
<path fill="none" stroke="black" d="M1281,-85.04C1281,-100.37 1281,-119.8 1281,-119.8 1281,-119.8 1133.72,-119.8 1133.72,-119.8"/>
<polygon fill="black" stroke="black" points="1133.72,-116.3 1123.72,-119.8 1133.72,-123.3 1133.72,-116.3"/>
</g>
<!-- InicioComponent -->
<g id="node6" class="node">
<title>InicioComponent</title>
<polygon fill="#ffffb3" stroke="black" points="1204.99,-84.8 1091.01,-84.8 1091.01,-48.8 1204.99,-48.8 1204.99,-84.8"/>
<text text-anchor="middle" x="1148" y="-62.6" font-family="Times,serif" font-size="14.00">InicioComponent</text>
</g>
<!-- InicioComponent&#45;&gt;AppModule -->
<g id="edge6" class="edge">
<title>InicioComponent&#45;&gt;AppModule</title>
<path fill="none" stroke="black" d="M1107.42,-84.91C1107.42,-84.91 1107.42,-103.79 1107.42,-103.79"/>
<polygon fill="black" stroke="black" points="1103.92,-103.79 1107.42,-113.79 1110.92,-103.79 1103.92,-103.79"/>
</g>
<!-- MenuComponent -->
<g id="node7" class="node">
<title>MenuComponent</title>
<polygon fill="#ffffb3" stroke="black" points="1072.99,-84.8 959.01,-84.8 959.01,-48.8 1072.99,-48.8 1072.99,-84.8"/>
<text text-anchor="middle" x="1016" y="-62.6" font-family="Times,serif" font-size="14.00">MenuComponent</text>
</g>
<!-- MenuComponent&#45;&gt;AppModule -->
<g id="edge7" class="edge">
<title>MenuComponent&#45;&gt;AppModule</title>
<path fill="none" stroke="black" d="M1056.58,-84.91C1056.58,-84.91 1056.58,-103.79 1056.58,-103.79"/>
<polygon fill="black" stroke="black" points="1053.08,-103.79 1056.58,-113.79 1060.08,-103.79 1053.08,-103.79"/>
</g>
<!-- PostagemDeleteComponent -->
<g id="node8" class="node">
<title>PostagemDeleteComponent</title>
<polygon fill="#ffffb3" stroke="black" points="941.3,-84.8 768.7,-84.8 768.7,-48.8 941.3,-48.8 941.3,-84.8"/>
<text text-anchor="middle" x="855" y="-62.6" font-family="Times,serif" font-size="14.00">PostagemDeleteComponent</text>
</g>
<!-- PostagemDeleteComponent&#45;&gt;AppModule -->
<g id="edge8" class="edge">
<title>PostagemDeleteComponent&#45;&gt;AppModule</title>
<path fill="none" stroke="black" d="M855,-85.04C855,-100.37 855,-119.8 855,-119.8 855,-119.8 1030.1,-119.8 1030.1,-119.8"/>
<polygon fill="black" stroke="black" points="1030.1,-123.3 1040.1,-119.8 1030.1,-116.3 1030.1,-123.3"/>
</g>
<!-- RodapeComponent -->
<g id="node9" class="node">
<title>RodapeComponent</title>
<polygon fill="#ffffb3" stroke="black" points="751.1,-84.8 626.9,-84.8 626.9,-48.8 751.1,-48.8 751.1,-84.8"/>
<text text-anchor="middle" x="689" y="-62.6" font-family="Times,serif" font-size="14.00">RodapeComponent</text>
</g>
<!-- RodapeComponent&#45;&gt;AppModule -->
<g id="edge9" class="edge">
<title>RodapeComponent&#45;&gt;AppModule</title>
<path fill="none" stroke="black" d="M689,-84.83C689,-101.86 689,-124.8 689,-124.8 689,-124.8 1030.31,-124.8 1030.31,-124.8"/>
<polygon fill="black" stroke="black" points="1030.31,-128.3 1040.31,-124.8 1030.31,-121.3 1030.31,-128.3"/>
</g>
<!-- TemaComponent -->
<g id="node10" class="node">
<title>TemaComponent</title>
<polygon fill="#ffffb3" stroke="black" points="608.7,-84.8 495.3,-84.8 495.3,-48.8 608.7,-48.8 608.7,-84.8"/>
<text text-anchor="middle" x="552" y="-62.6" font-family="Times,serif" font-size="14.00">TemaComponent</text>
</g>
<!-- TemaComponent&#45;&gt;AppModule -->
<g id="edge10" class="edge">
<title>TemaComponent&#45;&gt;AppModule</title>
<path fill="none" stroke="black" d="M552,-85.02C552,-103.63 552,-129.8 552,-129.8 552,-129.8 1029.97,-129.8 1029.97,-129.8"/>
<polygon fill="black" stroke="black" points="1029.97,-133.3 1039.97,-129.8 1029.97,-126.3 1029.97,-133.3"/>
</g>
<!-- TemaDeleteComponent -->
<g id="node11" class="node">
<title>TemaDeleteComponent</title>
<polygon fill="#ffffb3" stroke="black" points="477.74,-84.8 328.26,-84.8 328.26,-48.8 477.74,-48.8 477.74,-84.8"/>
<text text-anchor="middle" x="403" y="-62.6" font-family="Times,serif" font-size="14.00">TemaDeleteComponent</text>
</g>
<!-- TemaDeleteComponent&#45;&gt;AppModule -->
<g id="edge11" class="edge">
<title>TemaDeleteComponent&#45;&gt;AppModule</title>
<path fill="none" stroke="black" d="M403,-85.02C403,-105.17 403,-134.8 403,-134.8 403,-134.8 1030.29,-134.8 1030.29,-134.8"/>
<polygon fill="black" stroke="black" points="1030.29,-138.3 1040.29,-134.8 1030.29,-131.3 1030.29,-138.3"/>
</g>
<!-- TemaEditComponent -->
<g id="node12" class="node">
<title>TemaEditComponent</title>
<polygon fill="#ffffb3" stroke="black" points="310.04,-84.8 173.96,-84.8 173.96,-48.8 310.04,-48.8 310.04,-84.8"/>
<text text-anchor="middle" x="242" y="-62.6" font-family="Times,serif" font-size="14.00">TemaEditComponent</text>
</g>
<!-- TemaEditComponent&#45;&gt;AppModule -->
<g id="edge12" class="edge">
<title>TemaEditComponent&#45;&gt;AppModule</title>
<path fill="none" stroke="black" d="M242,-84.84C242,-106.46 242,-139.8 242,-139.8 242,-139.8 1030.06,-139.8 1030.06,-139.8"/>
<polygon fill="black" stroke="black" points="1030.06,-143.3 1040.06,-139.8 1030.06,-136.3 1030.06,-143.3"/>
</g>
<!-- UserEditComponent -->
<g id="node13" class="node">
<title>UserEditComponent</title>
<polygon fill="#ffffb3" stroke="black" points="155.59,-84.8 24.41,-84.8 24.41,-48.8 155.59,-48.8 155.59,-84.8"/>
<text text-anchor="middle" x="90" y="-62.6" font-family="Times,serif" font-size="14.00">UserEditComponent</text>
</g>
<!-- UserEditComponent&#45;&gt;AppModule -->
<g id="edge13" class="edge">
<title>UserEditComponent&#45;&gt;AppModule</title>
<path fill="none" stroke="black" d="M90,-84.89C90,-107.93 90,-144.8 90,-144.8 90,-144.8 1030.32,-144.8 1030.32,-144.8"/>
<polygon fill="black" stroke="black" points="1030.32,-148.3 1040.32,-144.8 1030.32,-141.3 1030.32,-148.3"/>
</g>
<!-- AppComponent  -->
<g id="node16" class="node">
<title>AppComponent </title>
<polygon fill="#80b1d3" stroke="black" points="1136.44,-214.8 1027.56,-214.8 1027.56,-178.8 1136.44,-178.8 1136.44,-214.8"/>
<text text-anchor="middle" x="1082" y="-192.6" font-family="Times,serif" font-size="14.00">AppComponent </text>
</g>
<!-- AppModule&#45;&gt;AppComponent  -->
<g id="edge15" class="edge">
<title>AppModule&#45;&gt;AppComponent </title>
<path fill="none" stroke="black" stroke-dasharray="1,5" d="M1082,-149.91C1082,-149.91 1082,-168.79 1082,-168.79"/>
<polygon fill="black" stroke="black" points="1078.5,-168.79 1082,-178.79 1085.5,-168.79 1078.5,-168.79"/>
</g>
<!-- AppRoutingModule -->
<g id="node15" class="node">
<title>AppRoutingModule</title>
<polygon fill="#8dd3c7" stroke="black" points="2085.27,-84.8 2082.27,-88.8 2061.27,-88.8 2058.27,-84.8 1956.73,-84.8 1956.73,-48.8 2085.27,-48.8 2085.27,-84.8"/>
<text text-anchor="middle" x="2021" y="-62.6" font-family="Times,serif" font-size="14.00">AppRoutingModule</text>
</g>
<!-- AppRoutingModule&#45;&gt;AppModule -->
<g id="edge14" class="edge">
<title>AppRoutingModule&#45;&gt;AppModule</title>
<path fill="none" stroke="black" d="M2021,-84.89C2021,-107.93 2021,-144.8 2021,-144.8 2021,-144.8 1133.86,-144.8 1133.86,-144.8"/>
<polygon fill="black" stroke="black" points="1133.86,-141.3 1123.86,-144.8 1133.86,-148.3 1133.86,-141.3"/>
</g>
</g>
</svg>
